<?xml version="1.0" encoding="utf-8"?>
<!-- Generator: Adobe Illustrator 19.0.0, SVG Export Plug-In . SVG Version: 6.00 Build 0)  -->
<svg version="1.1" id="Layer_1" xmlns="http://www.w3.org/2000/svg" xmlns:xlink="http://www.w3.org/1999/xlink" x="0px" y="0px"
	 viewBox="-219 17 521 527" style="enable-background:new -219 17 521 527;" xml:space="preserve">
<style type="text/css">
	.st0{fill:none;}
	.st1{fill:none;stroke:#85080A;stroke-width:0.95;}
	.st2{opacity:0.5;fill:#FFFFFF;enable-background:new    ;}
	.st3{opacity:0.75;fill:#FAC839;enable-background:new    ;}
	.st4{opacity:0.75;fill:#009F4D;enable-background:new    ;}
	.st5{opacity:0.75;fill:#0091D4;enable-background:new    ;}
	.st6{opacity:0.6;fill:#231F20;enable-background:new    ;}
	.st7{fill:#DA2128;}
	.st8{opacity:0.33;fill:#FFFFFF;enable-background:new    ;}
	.st9{fill:#29ABE2;}
	.st10{fill:url(#XMLID_275_);}
	.st11{fill:#BC895B;}
	.st12{fill:#E0A66C;}
	.st13{fill:url(#XMLID_276_);}
	.st14{opacity:0.3;enable-background:new    ;}
	.st15{fill:url(#XMLID_277_);}
	.st16{fill:#0C0702;}
	.st17{fill:#FFFFFF;}
	.st18{stroke:#000000;stroke-miterlimit:10;}
	.st19{fill:#FFFFFF;stroke:#000000;stroke-miterlimit:10;}
	.st20{fill:url(#XMLID_278_);}
	.st21{fill:url(#XMLID_279_);}
	.st22{fill:none;stroke:#898989;stroke-linecap:round;stroke-miterlimit:10;}
</style>
<pattern  x="-219" y="544" width="82.1" height="82.1" patternUnits="userSpaceOnUse" id="XMLID_271_" viewBox="82.1 -164.2 82.1 82.1" style="overflow:visible;">
	<g>
		<polygon class="st0" points="82.1,-82.1 164.2,-82.1 164.2,-164.2 82.1,-164.2 		"/>
		<g>
			<polygon class="st0" points="82.1,-164.2 164.2,-164.2 164.2,-82.1 82.1,-82.1 			"/>
			<g id="XMLID_398_">
				<polygon id="XMLID_487_" class="st0" points="82.1,-164.2 164.2,-164.2 164.2,-82.1 82.1,-82.1 				"/>
				<g id="XMLID_478_">
					<line id="XMLID_486_" class="st1" x1="113" y1="-82.1" x2="113" y2="0"/>
					<line id="XMLID_485_" class="st1" x1="140.3" y1="-82.1" x2="140.3" y2="0"/>
					<line id="XMLID_484_" class="st1" x1="85.6" y1="-82.1" x2="85.6" y2="0"/>
					<polygon id="XMLID_483_" class="st2" points="124.4,-82.1 119.8,-82.1 119.8,0 124.4,0 					"/>
					<polygon id="XMLID_482_" class="st3" points="151.7,-82.1 147.2,-82.1 147.2,0 151.7,0 					"/>
					<polygon id="XMLID_481_" class="st4" points="97,-82.1 92.4,-82.1 92.4,0 97,0 					"/>
					<polygon id="XMLID_480_" class="st5" points="160.8,-82.1 156.3,-82.1 156.3,0 160.8,0 					"/>
					<polygon id="XMLID_479_" class="st6" points="106.1,-82.1 101.6,-82.1 101.6,0 106.1,0 					"/>
				</g>
				<g id="XMLID_422_">
					<polygon id="XMLID_477_" class="st7" points="82.1,-82.1 82.1,-164.2 164.2,-164.2 164.2,-82.1 					"/>
					<line id="XMLID_476_" class="st1" x1="82.1" y1="-112.7" x2="164.2" y2="-112.7"/>
					<line id="XMLID_475_" class="st1" x1="82.1" y1="-85.4" x2="164.2" y2="-85.4"/>
					<line id="XMLID_474_" class="st1" x1="82.1" y1="-140.1" x2="164.2" y2="-140.1"/>
					<line id="XMLID_473_" class="st1" x1="113" y1="-164.2" x2="113" y2="-82.1"/>
					<line id="XMLID_472_" class="st1" x1="140.3" y1="-164.2" x2="140.3" y2="-82.1"/>
					<line id="XMLID_471_" class="st1" x1="85.6" y1="-164.2" x2="85.6" y2="-82.1"/>
					<polygon id="XMLID_470_" class="st4" points="164.2,-119.6 164.2,-124.1 82.1,-124.1 82.1,-119.6 					"/>
					<polygon id="XMLID_469_" class="st5" points="164.2,-92.2 164.2,-96.8 82.1,-96.8 82.1,-92.2 					"/>
					<polygon id="XMLID_468_" class="st3" points="164.2,-146.9 164.2,-151.5 82.1,-151.5 82.1,-146.9 					"/>
					<polygon id="XMLID_467_" class="st5" points="164.2,-128.7 164.2,-133.2 82.1,-133.2 82.1,-128.7 					"/>
					<polygon id="XMLID_466_" class="st3" points="164.2,-101.3 164.2,-105.9 82.1,-105.9 82.1,-101.3 					"/>
					<polygon id="XMLID_465_" class="st4" points="164.2,-156 164.2,-160.6 82.1,-160.6 82.1,-156 					"/>
					<polygon id="XMLID_464_" class="st2" points="124.4,-164.2 119.8,-164.2 119.8,-82.1 124.4,-82.1 					"/>
					<polygon id="XMLID_463_" class="st3" points="151.7,-164.2 147.2,-164.2 147.2,-82.1 151.7,-82.1 					"/>
					<polygon id="XMLID_462_" class="st4" points="97,-164.2 92.4,-164.2 92.4,-82.1 97,-82.1 					"/>
					<polygon id="XMLID_461_" class="st5" points="133.5,-164.2 128.9,-164.2 128.9,-82.1 133.5,-82.1 					"/>
					<polygon id="XMLID_460_" class="st5" points="160.8,-164.2 156.3,-164.2 156.3,-82.1 160.8,-82.1 					"/>
					<polygon id="XMLID_459_" class="st6" points="106.1,-164.2 101.6,-164.2 101.6,-82.1 106.1,-82.1 					"/>
					<polygon id="XMLID_458_" class="st8" points="97,-146.9 97,-151.5 92.4,-151.5 92.4,-146.9 					"/>
					<polygon id="XMLID_457_" class="st8" points="106.1,-156 106.1,-160.6 101.6,-160.6 101.6,-156 					"/>
					<polygon id="XMLID_456_" class="st8" points="106.1,-146.9 106.1,-151.5 101.6,-151.5 101.6,-146.9 					"/>
					<polygon id="XMLID_455_" class="st8" points="97,-156 97,-160.6 92.4,-160.6 92.4,-156 					"/>
					<polygon id="XMLID_454_" class="st8" points="124.4,-146.9 124.4,-151.5 119.8,-151.5 119.8,-146.9 					"/>
					<polygon id="XMLID_453_" class="st8" points="133.5,-156 133.5,-160.6 128.9,-160.6 128.9,-156 					"/>
					<polygon id="XMLID_452_" class="st8" points="133.5,-146.9 133.5,-151.5 128.9,-151.5 128.9,-146.9 					"/>
					<polygon id="XMLID_451_" class="st8" points="124.4,-156 124.4,-160.6 119.8,-160.6 119.8,-156 					"/>
					<polygon id="XMLID_450_" class="st8" points="151.7,-146.9 151.7,-151.5 147.2,-151.5 147.2,-146.9 					"/>
					<polygon id="XMLID_449_" class="st8" points="160.8,-156 160.8,-160.6 156.3,-160.6 156.3,-156 					"/>
					<polygon id="XMLID_448_" class="st8" points="160.8,-146.9 160.8,-151.5 156.3,-151.5 156.3,-146.9 					"/>
					<polygon id="XMLID_447_" class="st8" points="151.7,-156 151.7,-160.6 147.2,-160.6 147.2,-156 					"/>
					<polygon id="XMLID_446_" class="st8" points="97,-119.6 97,-124.1 92.4,-124.1 92.4,-119.6 					"/>
					<polygon id="XMLID_445_" class="st8" points="106.1,-128.7 106.1,-133.2 101.6,-133.2 101.6,-128.7 					"/>
					<polygon id="XMLID_444_" class="st8" points="106.1,-119.6 106.1,-124.1 101.6,-124.1 101.6,-119.6 					"/>
					<polygon id="XMLID_443_" class="st8" points="97,-128.7 97,-133.2 92.4,-133.2 92.4,-128.7 					"/>
					<polygon id="XMLID_442_" class="st8" points="124.4,-119.6 124.4,-124.1 119.8,-124.1 119.8,-119.6 					"/>
					<polygon id="XMLID_441_" class="st8" points="133.5,-128.7 133.5,-133.2 128.9,-133.2 128.9,-128.7 					"/>
					<polygon id="XMLID_440_" class="st8" points="133.5,-119.6 133.5,-124.1 128.9,-124.1 128.9,-119.6 					"/>
					<polygon id="XMLID_439_" class="st8" points="124.4,-128.7 124.4,-133.2 119.8,-133.2 119.8,-128.7 					"/>
					<polygon id="XMLID_438_" class="st8" points="151.7,-119.6 151.7,-124.1 147.2,-124.1 147.2,-119.6 					"/>
					<polygon id="XMLID_437_" class="st8" points="160.8,-128.7 160.8,-133.2 156.3,-133.2 156.3,-128.7 					"/>
					<polygon id="XMLID_436_" class="st8" points="160.8,-119.6 160.8,-124.1 156.3,-124.1 156.3,-119.6 					"/>
					<polygon id="XMLID_435_" class="st8" points="151.7,-128.7 151.7,-133.2 147.2,-133.2 147.2,-128.7 					"/>
					<polygon id="XMLID_434_" class="st8" points="97,-92.2 97,-96.8 92.4,-96.8 92.4,-92.2 					"/>
					<polygon id="XMLID_433_" class="st8" points="106.1,-101.3 106.1,-105.9 101.6,-105.9 101.6,-101.3 					"/>
					<polygon id="XMLID_432_" class="st8" points="106.1,-92.2 106.1,-96.8 101.6,-96.8 101.6,-92.2 					"/>
					<polygon id="XMLID_431_" class="st8" points="97,-101.3 97,-105.9 92.4,-105.9 92.4,-101.3 					"/>
					<polygon id="XMLID_430_" class="st8" points="124.4,-92.2 124.4,-96.8 119.8,-96.8 119.8,-92.2 					"/>
					<polygon id="XMLID_429_" class="st8" points="133.5,-101.3 133.5,-105.9 128.9,-105.9 128.9,-101.3 					"/>
					<polygon id="XMLID_428_" class="st8" points="133.5,-92.2 133.5,-96.8 128.9,-96.8 128.9,-92.2 					"/>
					<polygon id="XMLID_427_" class="st8" points="124.4,-101.3 124.4,-105.9 119.8,-105.9 119.8,-101.3 					"/>
					<polygon id="XMLID_426_" class="st8" points="151.7,-92.2 151.7,-96.8 147.2,-96.8 147.2,-92.2 					"/>
					<polygon id="XMLID_425_" class="st8" points="160.8,-101.3 160.8,-105.9 156.3,-105.9 156.3,-101.3 					"/>
					<polygon id="XMLID_424_" class="st8" points="160.8,-92.2 160.8,-96.8 156.3,-96.8 156.3,-92.2 					"/>
					<polygon id="XMLID_423_" class="st8" points="151.7,-101.3 151.7,-105.9 147.2,-105.9 147.2,-101.3 					"/>
				</g>
				<g id="XMLID_411_">
					<polygon id="XMLID_421_" class="st7" points="0,-82.1 0,-164.2 82.1,-164.2 82.1,-82.1 					"/>
					<line id="XMLID_420_" class="st1" x1="0" y1="-112.7" x2="82.1" y2="-112.7"/>
					<line id="XMLID_419_" class="st1" x1="0" y1="-85.4" x2="82.1" y2="-85.4"/>
					<line id="XMLID_418_" class="st1" x1="0" y1="-140.1" x2="82.1" y2="-140.1"/>
					<polygon id="XMLID_417_" class="st4" points="82.1,-119.6 82.1,-124.1 0,-124.1 0,-119.6 					"/>
					<polygon id="XMLID_416_" class="st5" points="82.1,-92.2 82.1,-96.8 0,-96.8 0,-92.2 					"/>
					<polygon id="XMLID_415_" class="st3" points="82.1,-146.9 82.1,-151.5 0,-151.5 0,-146.9 					"/>
					<polygon id="XMLID_414_" class="st5" points="82.1,-128.7 82.1,-133.2 0,-133.2 0,-128.7 					"/>
					<polygon id="XMLID_413_" class="st3" points="82.1,-101.3 82.1,-105.9 0,-105.9 0,-101.3 					"/>
					<polygon id="XMLID_412_" class="st4" points="82.1,-156 82.1,-160.6 0,-160.6 0,-156 					"/>
				</g>
				<g id="XMLID_401_">
					<polygon id="XMLID_410_" class="st7" points="82.1,-164.2 82.1,-246.3 164.2,-246.3 164.2,-164.2 					"/>
					<line id="XMLID_409_" class="st1" x1="113" y1="-246.3" x2="113" y2="-164.2"/>
					<line id="XMLID_408_" class="st1" x1="140.3" y1="-246.3" x2="140.3" y2="-164.2"/>
					<polygon id="XMLID_407_" class="st2" points="124.4,-246.3 119.8,-246.3 119.8,-164.2 124.4,-164.2 					"/>
					<polygon id="XMLID_406_" class="st3" points="151.7,-246.3 147.2,-246.3 147.2,-164.2 151.7,-164.2 					"/>
					<polygon id="XMLID_405_" class="st4" points="97,-246.3 92.4,-246.3 92.4,-164.2 97,-164.2 					"/>
					<polygon id="XMLID_404_" class="st5" points="133.5,-246.3 128.9,-246.3 128.9,-164.2 133.5,-164.2 					"/>
					<polygon id="XMLID_403_" class="st5" points="160.8,-246.3 156.3,-246.3 156.3,-164.2 160.8,-164.2 					"/>
					<polygon id="XMLID_402_" class="st6" points="106.1,-246.3 101.6,-246.3 101.6,-164.2 106.1,-164.2 					"/>
				</g>
				<g id="XMLID_399_">
					<polygon id="XMLID_400_" class="st7" points="0,-164.2 0,-246.3 82.1,-246.3 82.1,-164.2 					"/>
				</g>
			</g>
		</g>
	</g>
</pattern>
<pattern  x="-219" y="544" width="82.1" height="82.1" patternUnits="userSpaceOnUse" id="XMLID_272_" viewBox="82.1 -164.2 82.1 82.1" style="overflow:visible;">
	<g>
		<polygon class="st0" points="82.1,-82.1 164.2,-82.1 164.2,-164.2 82.1,-164.2 		"/>
		<g>
			<polygon class="st0" points="82.1,-164.2 164.2,-164.2 164.2,-82.1 82.1,-82.1 			"/>
			<g id="XMLID_493_">
				<polygon id="XMLID_582_" class="st0" points="82.1,-164.2 164.2,-164.2 164.2,-82.1 82.1,-82.1 				"/>
				<g id="XMLID_573_">
					<line id="XMLID_581_" class="st1" x1="113" y1="-82.1" x2="113" y2="0"/>
					<line id="XMLID_580_" class="st1" x1="140.3" y1="-82.1" x2="140.3" y2="0"/>
					<line id="XMLID_579_" class="st1" x1="85.6" y1="-82.1" x2="85.6" y2="0"/>
					<polygon id="XMLID_578_" class="st2" points="124.4,-82.1 119.8,-82.1 119.8,0 124.4,0 					"/>
					<polygon id="XMLID_577_" class="st3" points="151.7,-82.1 147.2,-82.1 147.2,0 151.7,0 					"/>
					<polygon id="XMLID_576_" class="st4" points="97,-82.1 92.4,-82.1 92.4,0 97,0 					"/>
					<polygon id="XMLID_575_" class="st5" points="160.8,-82.1 156.3,-82.1 156.3,0 160.8,0 					"/>
					<polygon id="XMLID_574_" class="st6" points="106.1,-82.1 101.6,-82.1 101.6,0 106.1,0 					"/>
				</g>
				<g id="XMLID_517_">
					<polygon id="XMLID_572_" class="st7" points="82.1,-82.1 82.1,-164.2 164.2,-164.2 164.2,-82.1 					"/>
					<line id="XMLID_571_" class="st1" x1="82.1" y1="-112.7" x2="164.2" y2="-112.7"/>
					<line id="XMLID_570_" class="st1" x1="82.1" y1="-85.4" x2="164.2" y2="-85.4"/>
					<line id="XMLID_569_" class="st1" x1="82.1" y1="-140.1" x2="164.2" y2="-140.1"/>
					<line id="XMLID_568_" class="st1" x1="113" y1="-164.2" x2="113" y2="-82.1"/>
					<line id="XMLID_567_" class="st1" x1="140.3" y1="-164.2" x2="140.3" y2="-82.1"/>
					<line id="XMLID_566_" class="st1" x1="85.6" y1="-164.2" x2="85.6" y2="-82.1"/>
					<polygon id="XMLID_565_" class="st4" points="164.2,-119.6 164.2,-124.1 82.1,-124.1 82.1,-119.6 					"/>
					<polygon id="XMLID_564_" class="st5" points="164.2,-92.2 164.2,-96.8 82.1,-96.8 82.1,-92.2 					"/>
					<polygon id="XMLID_563_" class="st3" points="164.2,-146.9 164.2,-151.5 82.1,-151.5 82.1,-146.9 					"/>
					<polygon id="XMLID_562_" class="st5" points="164.2,-128.7 164.2,-133.2 82.1,-133.2 82.1,-128.7 					"/>
					<polygon id="XMLID_561_" class="st3" points="164.2,-101.3 164.2,-105.9 82.1,-105.9 82.1,-101.3 					"/>
					<polygon id="XMLID_560_" class="st4" points="164.2,-156 164.2,-160.6 82.1,-160.6 82.1,-156 					"/>
					<polygon id="XMLID_559_" class="st2" points="124.4,-164.2 119.8,-164.2 119.8,-82.1 124.4,-82.1 					"/>
					<polygon id="XMLID_558_" class="st3" points="151.7,-164.2 147.2,-164.2 147.2,-82.1 151.7,-82.1 					"/>
					<polygon id="XMLID_557_" class="st4" points="97,-164.2 92.4,-164.2 92.4,-82.1 97,-82.1 					"/>
					<polygon id="XMLID_556_" class="st5" points="133.5,-164.2 128.9,-164.2 128.9,-82.1 133.5,-82.1 					"/>
					<polygon id="XMLID_555_" class="st5" points="160.8,-164.2 156.3,-164.2 156.3,-82.1 160.8,-82.1 					"/>
					<polygon id="XMLID_554_" class="st6" points="106.1,-164.2 101.6,-164.2 101.6,-82.1 106.1,-82.1 					"/>
					<polygon id="XMLID_553_" class="st8" points="97,-146.9 97,-151.5 92.4,-151.5 92.4,-146.9 					"/>
					<polygon id="XMLID_552_" class="st8" points="106.1,-156 106.1,-160.6 101.6,-160.6 101.6,-156 					"/>
					<polygon id="XMLID_551_" class="st8" points="106.1,-146.9 106.1,-151.5 101.6,-151.5 101.6,-146.9 					"/>
					<polygon id="XMLID_550_" class="st8" points="97,-156 97,-160.6 92.4,-160.6 92.4,-156 					"/>
					<polygon id="XMLID_549_" class="st8" points="124.4,-146.9 124.4,-151.5 119.8,-151.5 119.8,-146.9 					"/>
					<polygon id="XMLID_548_" class="st8" points="133.5,-156 133.5,-160.6 128.9,-160.6 128.9,-156 					"/>
					<polygon id="XMLID_547_" class="st8" points="133.5,-146.9 133.5,-151.5 128.9,-151.5 128.9,-146.9 					"/>
					<polygon id="XMLID_546_" class="st8" points="124.4,-156 124.4,-160.6 119.8,-160.6 119.8,-156 					"/>
					<polygon id="XMLID_545_" class="st8" points="151.7,-146.9 151.7,-151.5 147.2,-151.5 147.2,-146.9 					"/>
					<polygon id="XMLID_544_" class="st8" points="160.8,-156 160.8,-160.6 156.3,-160.6 156.3,-156 					"/>
					<polygon id="XMLID_543_" class="st8" points="160.8,-146.9 160.8,-151.5 156.3,-151.5 156.3,-146.9 					"/>
					<polygon id="XMLID_542_" class="st8" points="151.7,-156 151.7,-160.6 147.2,-160.6 147.2,-156 					"/>
					<polygon id="XMLID_541_" class="st8" points="97,-119.6 97,-124.1 92.4,-124.1 92.4,-119.6 					"/>
					<polygon id="XMLID_540_" class="st8" points="106.1,-128.7 106.1,-133.2 101.6,-133.2 101.6,-128.7 					"/>
					<polygon id="XMLID_539_" class="st8" points="106.1,-119.6 106.1,-124.1 101.6,-124.1 101.6,-119.6 					"/>
					<polygon id="XMLID_538_" class="st8" points="97,-128.7 97,-133.2 92.4,-133.2 92.4,-128.7 					"/>
					<polygon id="XMLID_537_" class="st8" points="124.4,-119.6 124.4,-124.1 119.8,-124.1 119.8,-119.6 					"/>
					<polygon id="XMLID_536_" class="st8" points="133.5,-128.7 133.5,-133.2 128.9,-133.2 128.9,-128.7 					"/>
					<polygon id="XMLID_535_" class="st8" points="133.5,-119.6 133.5,-124.1 128.9,-124.1 128.9,-119.6 					"/>
					<polygon id="XMLID_534_" class="st8" points="124.4,-128.7 124.4,-133.2 119.8,-133.2 119.8,-128.7 					"/>
					<polygon id="XMLID_533_" class="st8" points="151.7,-119.6 151.7,-124.1 147.2,-124.1 147.2,-119.6 					"/>
					<polygon id="XMLID_532_" class="st8" points="160.8,-128.7 160.8,-133.2 156.3,-133.2 156.3,-128.7 					"/>
					<polygon id="XMLID_531_" class="st8" points="160.8,-119.6 160.8,-124.1 156.3,-124.1 156.3,-119.6 					"/>
					<polygon id="XMLID_530_" class="st8" points="151.7,-128.7 151.7,-133.2 147.2,-133.2 147.2,-128.7 					"/>
					<polygon id="XMLID_529_" class="st8" points="97,-92.2 97,-96.8 92.4,-96.8 92.4,-92.2 					"/>
					<polygon id="XMLID_528_" class="st8" points="106.1,-101.3 106.1,-105.9 101.6,-105.9 101.6,-101.3 					"/>
					<polygon id="XMLID_527_" class="st8" points="106.1,-92.2 106.1,-96.8 101.6,-96.8 101.6,-92.2 					"/>
					<polygon id="XMLID_526_" class="st8" points="97,-101.3 97,-105.9 92.4,-105.9 92.4,-101.3 					"/>
					<polygon id="XMLID_525_" class="st8" points="124.4,-92.2 124.4,-96.8 119.8,-96.8 119.8,-92.2 					"/>
					<polygon id="XMLID_524_" class="st8" points="133.5,-101.3 133.5,-105.9 128.9,-105.9 128.9,-101.3 					"/>
					<polygon id="XMLID_523_" class="st8" points="133.5,-92.2 133.5,-96.8 128.9,-96.8 128.9,-92.2 					"/>
					<polygon id="XMLID_522_" class="st8" points="124.4,-101.3 124.4,-105.9 119.8,-105.9 119.8,-101.3 					"/>
					<polygon id="XMLID_521_" class="st8" points="151.7,-92.2 151.7,-96.8 147.2,-96.8 147.2,-92.2 					"/>
					<polygon id="XMLID_520_" class="st8" points="160.8,-101.3 160.8,-105.9 156.3,-105.9 156.3,-101.3 					"/>
					<polygon id="XMLID_519_" class="st8" points="160.8,-92.2 160.8,-96.8 156.3,-96.8 156.3,-92.2 					"/>
					<polygon id="XMLID_518_" class="st8" points="151.7,-101.3 151.7,-105.9 147.2,-105.9 147.2,-101.3 					"/>
				</g>
				<g id="XMLID_506_">
					<polygon id="XMLID_516_" class="st7" points="0,-82.1 0,-164.2 82.1,-164.2 82.1,-82.1 					"/>
					<line id="XMLID_515_" class="st1" x1="0" y1="-112.7" x2="82.1" y2="-112.7"/>
					<line id="XMLID_514_" class="st1" x1="0" y1="-85.4" x2="82.1" y2="-85.4"/>
					<line id="XMLID_513_" class="st1" x1="0" y1="-140.1" x2="82.1" y2="-140.1"/>
					<polygon id="XMLID_512_" class="st4" points="82.1,-119.6 82.1,-124.1 0,-124.1 0,-119.6 					"/>
					<polygon id="XMLID_511_" class="st5" points="82.1,-92.2 82.1,-96.8 0,-96.8 0,-92.2 					"/>
					<polygon id="XMLID_510_" class="st3" points="82.1,-146.9 82.1,-151.5 0,-151.5 0,-146.9 					"/>
					<polygon id="XMLID_509_" class="st5" points="82.1,-128.7 82.1,-133.2 0,-133.2 0,-128.7 					"/>
					<polygon id="XMLID_508_" class="st3" points="82.1,-101.3 82.1,-105.9 0,-105.9 0,-101.3 					"/>
					<polygon id="XMLID_507_" class="st4" points="82.1,-156 82.1,-160.6 0,-160.6 0,-156 					"/>
				</g>
				<g id="XMLID_496_">
					<polygon id="XMLID_505_" class="st7" points="82.1,-164.2 82.1,-246.3 164.2,-246.3 164.2,-164.2 					"/>
					<line id="XMLID_504_" class="st1" x1="113" y1="-246.3" x2="113" y2="-164.2"/>
					<line id="XMLID_503_" class="st1" x1="140.3" y1="-246.3" x2="140.3" y2="-164.2"/>
					<polygon id="XMLID_502_" class="st2" points="124.4,-246.3 119.8,-246.3 119.8,-164.2 124.4,-164.2 					"/>
					<polygon id="XMLID_501_" class="st3" points="151.7,-246.3 147.2,-246.3 147.2,-164.2 151.7,-164.2 					"/>
					<polygon id="XMLID_500_" class="st4" points="97,-246.3 92.4,-246.3 92.4,-164.2 97,-164.2 					"/>
					<polygon id="XMLID_499_" class="st5" points="133.5,-246.3 128.9,-246.3 128.9,-164.2 133.5,-164.2 					"/>
					<polygon id="XMLID_498_" class="st5" points="160.8,-246.3 156.3,-246.3 156.3,-164.2 160.8,-164.2 					"/>
					<polygon id="XMLID_497_" class="st6" points="106.1,-246.3 101.6,-246.3 101.6,-164.2 106.1,-164.2 					"/>
				</g>
				<g id="XMLID_494_">
					<polygon id="XMLID_495_" class="st7" points="0,-164.2 0,-246.3 82.1,-246.3 82.1,-164.2 					"/>
				</g>
			</g>
		</g>
	</g>
</pattern>
<pattern  x="-219" y="544" width="82.1" height="82.1" patternUnits="userSpaceOnUse" id="XMLID_273_" viewBox="82.1 -164.2 82.1 82.1" style="overflow:visible;">
	<g>
		<polygon class="st0" points="82.1,-82.1 164.2,-82.1 164.2,-164.2 82.1,-164.2 		"/>
		<g>
			<polygon class="st0" points="82.1,-164.2 164.2,-164.2 164.2,-82.1 82.1,-82.1 			"/>
			<g id="XMLID_586_">
				<polygon id="XMLID_675_" class="st0" points="82.1,-164.2 164.2,-164.2 164.2,-82.1 82.1,-82.1 				"/>
				<g id="XMLID_666_">
					<line id="XMLID_674_" class="st1" x1="113" y1="-82.1" x2="113" y2="0"/>
					<line id="XMLID_673_" class="st1" x1="140.3" y1="-82.1" x2="140.3" y2="0"/>
					<line id="XMLID_672_" class="st1" x1="85.6" y1="-82.1" x2="85.6" y2="0"/>
					<polygon id="XMLID_671_" class="st2" points="124.4,-82.1 119.8,-82.1 119.8,0 124.4,0 					"/>
					<polygon id="XMLID_670_" class="st3" points="151.7,-82.1 147.2,-82.1 147.2,0 151.7,0 					"/>
					<polygon id="XMLID_669_" class="st4" points="97,-82.1 92.4,-82.1 92.4,0 97,0 					"/>
					<polygon id="XMLID_668_" class="st5" points="160.8,-82.1 156.3,-82.1 156.3,0 160.8,0 					"/>
					<polygon id="XMLID_667_" class="st6" points="106.1,-82.1 101.6,-82.1 101.6,0 106.1,0 					"/>
				</g>
				<g id="XMLID_610_">
					<polygon id="XMLID_665_" class="st7" points="82.1,-82.1 82.1,-164.2 164.2,-164.2 164.2,-82.1 					"/>
					<line id="XMLID_664_" class="st1" x1="82.1" y1="-112.7" x2="164.2" y2="-112.7"/>
					<line id="XMLID_663_" class="st1" x1="82.1" y1="-85.4" x2="164.2" y2="-85.4"/>
					<line id="XMLID_662_" class="st1" x1="82.1" y1="-140.1" x2="164.2" y2="-140.1"/>
					<line id="XMLID_661_" class="st1" x1="113" y1="-164.2" x2="113" y2="-82.1"/>
					<line id="XMLID_660_" class="st1" x1="140.3" y1="-164.2" x2="140.3" y2="-82.1"/>
					<line id="XMLID_659_" class="st1" x1="85.6" y1="-164.2" x2="85.6" y2="-82.1"/>
					<polygon id="XMLID_658_" class="st4" points="164.2,-119.6 164.2,-124.1 82.1,-124.1 82.1,-119.6 					"/>
					<polygon id="XMLID_657_" class="st5" points="164.2,-92.2 164.2,-96.8 82.1,-96.8 82.1,-92.2 					"/>
					<polygon id="XMLID_656_" class="st3" points="164.2,-146.9 164.2,-151.5 82.1,-151.5 82.1,-146.9 					"/>
					<polygon id="XMLID_655_" class="st5" points="164.2,-128.7 164.2,-133.2 82.1,-133.2 82.1,-128.7 					"/>
					<polygon id="XMLID_654_" class="st3" points="164.2,-101.3 164.2,-105.9 82.1,-105.9 82.1,-101.3 					"/>
					<polygon id="XMLID_653_" class="st4" points="164.2,-156 164.2,-160.6 82.1,-160.6 82.1,-156 					"/>
					<polygon id="XMLID_652_" class="st2" points="124.4,-164.2 119.8,-164.2 119.8,-82.1 124.4,-82.1 					"/>
					<polygon id="XMLID_651_" class="st3" points="151.7,-164.2 147.2,-164.2 147.2,-82.1 151.7,-82.1 					"/>
					<polygon id="XMLID_650_" class="st4" points="97,-164.2 92.4,-164.2 92.4,-82.1 97,-82.1 					"/>
					<polygon id="XMLID_649_" class="st5" points="133.5,-164.2 128.9,-164.2 128.9,-82.1 133.5,-82.1 					"/>
					<polygon id="XMLID_648_" class="st5" points="160.8,-164.2 156.3,-164.2 156.3,-82.1 160.8,-82.1 					"/>
					<polygon id="XMLID_647_" class="st6" points="106.1,-164.2 101.6,-164.2 101.6,-82.1 106.1,-82.1 					"/>
					<polygon id="XMLID_646_" class="st8" points="97,-146.9 97,-151.5 92.4,-151.5 92.4,-146.9 					"/>
					<polygon id="XMLID_645_" class="st8" points="106.1,-156 106.1,-160.6 101.6,-160.6 101.6,-156 					"/>
					<polygon id="XMLID_644_" class="st8" points="106.1,-146.9 106.1,-151.5 101.6,-151.5 101.6,-146.9 					"/>
					<polygon id="XMLID_643_" class="st8" points="97,-156 97,-160.6 92.4,-160.6 92.4,-156 					"/>
					<polygon id="XMLID_642_" class="st8" points="124.4,-146.9 124.4,-151.5 119.8,-151.5 119.8,-146.9 					"/>
					<polygon id="XMLID_641_" class="st8" points="133.5,-156 133.5,-160.6 128.9,-160.6 128.9,-156 					"/>
					<polygon id="XMLID_640_" class="st8" points="133.5,-146.9 133.5,-151.5 128.9,-151.5 128.9,-146.9 					"/>
					<polygon id="XMLID_639_" class="st8" points="124.4,-156 124.4,-160.6 119.8,-160.6 119.8,-156 					"/>
					<polygon id="XMLID_638_" class="st8" points="151.7,-146.9 151.7,-151.5 147.2,-151.5 147.2,-146.9 					"/>
					<polygon id="XMLID_637_" class="st8" points="160.8,-156 160.8,-160.6 156.3,-160.6 156.3,-156 					"/>
					<polygon id="XMLID_636_" class="st8" points="160.8,-146.9 160.8,-151.5 156.3,-151.5 156.3,-146.9 					"/>
					<polygon id="XMLID_635_" class="st8" points="151.7,-156 151.7,-160.6 147.2,-160.6 147.2,-156 					"/>
					<polygon id="XMLID_634_" class="st8" points="97,-119.6 97,-124.1 92.4,-124.1 92.4,-119.6 					"/>
					<polygon id="XMLID_633_" class="st8" points="106.1,-128.7 106.1,-133.2 101.6,-133.2 101.6,-128.7 					"/>
					<polygon id="XMLID_632_" class="st8" points="106.1,-119.6 106.1,-124.1 101.6,-124.1 101.6,-119.6 					"/>
					<polygon id="XMLID_631_" class="st8" points="97,-128.7 97,-133.2 92.4,-133.2 92.4,-128.7 					"/>
					<polygon id="XMLID_630_" class="st8" points="124.4,-119.6 124.4,-124.1 119.8,-124.1 119.8,-119.6 					"/>
					<polygon id="XMLID_629_" class="st8" points="133.5,-128.7 133.5,-133.2 128.9,-133.2 128.9,-128.7 					"/>
					<polygon id="XMLID_628_" class="st8" points="133.5,-119.6 133.5,-124.1 128.9,-124.1 128.9,-119.6 					"/>
					<polygon id="XMLID_627_" class="st8" points="124.4,-128.7 124.4,-133.2 119.8,-133.2 119.8,-128.7 					"/>
					<polygon id="XMLID_626_" class="st8" points="151.7,-119.6 151.7,-124.1 147.2,-124.1 147.2,-119.6 					"/>
					<polygon id="XMLID_625_" class="st8" points="160.8,-128.7 160.8,-133.2 156.3,-133.2 156.3,-128.7 					"/>
					<polygon id="XMLID_624_" class="st8" points="160.8,-119.6 160.8,-124.1 156.3,-124.1 156.3,-119.6 					"/>
					<polygon id="XMLID_623_" class="st8" points="151.7,-128.7 151.7,-133.2 147.2,-133.2 147.2,-128.7 					"/>
					<polygon id="XMLID_622_" class="st8" points="97,-92.2 97,-96.8 92.4,-96.8 92.4,-92.2 					"/>
					<polygon id="XMLID_621_" class="st8" points="106.1,-101.3 106.1,-105.9 101.6,-105.9 101.6,-101.3 					"/>
					<polygon id="XMLID_620_" class="st8" points="106.1,-92.2 106.1,-96.8 101.6,-96.8 101.6,-92.2 					"/>
					<polygon id="XMLID_619_" class="st8" points="97,-101.3 97,-105.9 92.4,-105.9 92.4,-101.3 					"/>
					<polygon id="XMLID_618_" class="st8" points="124.4,-92.2 124.4,-96.8 119.8,-96.8 119.8,-92.2 					"/>
					<polygon id="XMLID_617_" class="st8" points="133.5,-101.3 133.5,-105.9 128.9,-105.9 128.9,-101.3 					"/>
					<polygon id="XMLID_616_" class="st8" points="133.5,-92.2 133.5,-96.8 128.9,-96.8 128.9,-92.2 					"/>
					<polygon id="XMLID_615_" class="st8" points="124.4,-101.3 124.4,-105.9 119.8,-105.9 119.8,-101.3 					"/>
					<polygon id="XMLID_614_" class="st8" points="151.7,-92.2 151.7,-96.8 147.2,-96.8 147.2,-92.2 					"/>
					<polygon id="XMLID_613_" class="st8" points="160.8,-101.3 160.8,-105.9 156.3,-105.9 156.3,-101.3 					"/>
					<polygon id="XMLID_612_" class="st8" points="160.8,-92.2 160.8,-96.8 156.3,-96.8 156.3,-92.2 					"/>
					<polygon id="XMLID_611_" class="st8" points="151.7,-101.3 151.7,-105.9 147.2,-105.9 147.2,-101.3 					"/>
				</g>
				<g id="XMLID_599_">
					<polygon id="XMLID_609_" class="st7" points="0,-82.1 0,-164.2 82.1,-164.2 82.1,-82.1 					"/>
					<line id="XMLID_608_" class="st1" x1="0" y1="-112.7" x2="82.1" y2="-112.7"/>
					<line id="XMLID_607_" class="st1" x1="0" y1="-85.4" x2="82.1" y2="-85.4"/>
					<line id="XMLID_606_" class="st1" x1="0" y1="-140.1" x2="82.1" y2="-140.1"/>
					<polygon id="XMLID_605_" class="st4" points="82.1,-119.6 82.1,-124.1 0,-124.1 0,-119.6 					"/>
					<polygon id="XMLID_604_" class="st5" points="82.1,-92.2 82.1,-96.8 0,-96.8 0,-92.2 					"/>
					<polygon id="XMLID_603_" class="st3" points="82.1,-146.9 82.1,-151.5 0,-151.5 0,-146.9 					"/>
					<polygon id="XMLID_602_" class="st5" points="82.1,-128.7 82.1,-133.2 0,-133.2 0,-128.7 					"/>
					<polygon id="XMLID_601_" class="st3" points="82.1,-101.3 82.1,-105.9 0,-105.9 0,-101.3 					"/>
					<polygon id="XMLID_600_" class="st4" points="82.1,-156 82.1,-160.6 0,-160.6 0,-156 					"/>
				</g>
				<g id="XMLID_589_">
					<polygon id="XMLID_598_" class="st7" points="82.1,-164.2 82.1,-246.3 164.2,-246.3 164.2,-164.2 					"/>
					<line id="XMLID_597_" class="st1" x1="113" y1="-246.3" x2="113" y2="-164.2"/>
					<line id="XMLID_596_" class="st1" x1="140.3" y1="-246.3" x2="140.3" y2="-164.2"/>
					<polygon id="XMLID_595_" class="st2" points="124.4,-246.3 119.8,-246.3 119.8,-164.2 124.4,-164.2 					"/>
					<polygon id="XMLID_594_" class="st3" points="151.7,-246.3 147.2,-246.3 147.2,-164.2 151.7,-164.2 					"/>
					<polygon id="XMLID_593_" class="st4" points="97,-246.3 92.4,-246.3 92.4,-164.2 97,-164.2 					"/>
					<polygon id="XMLID_592_" class="st5" points="133.5,-246.3 128.9,-246.3 128.9,-164.2 133.5,-164.2 					"/>
					<polygon id="XMLID_591_" class="st5" points="160.8,-246.3 156.3,-246.3 156.3,-164.2 160.8,-164.2 					"/>
					<polygon id="XMLID_590_" class="st6" points="106.1,-246.3 101.6,-246.3 101.6,-164.2 106.1,-164.2 					"/>
				</g>
				<g id="XMLID_587_">
					<polygon id="XMLID_588_" class="st7" points="0,-164.2 0,-246.3 82.1,-246.3 82.1,-164.2 					"/>
				</g>
			</g>
		</g>
	</g>
</pattern>
<g id="Layer_3">
	<g id="XMLID_489_">
		<path id="XMLID_396_" class="st9" d="M234.2,320.2c0-106.4-86.3-192.7-192.7-192.7s-192.7,86.3-192.7,192.7
			c0,67.7,34.9,127.2,87.7,161.6v-27.1c0-45.4,36.8-82.1,82.1-82.1h43.5c45.4,0,82.1,36.8,82.1,82.1v28.5
			C198.3,449.1,234.2,388.9,234.2,320.2z"/>
		<path id="XMLID_397_" class="st9" d="M62.1,372.6H18.7c-45.4,0-82.1,36.8-82.1,82.1v27.1c30.2,19.7,66.2,31.1,105,31.1
			c37.8,0,73-10.9,102.7-29.6v-28.5C144.2,409.4,107.4,372.6,62.1,372.6z"/>
		<pattern  id="XMLID_275_" xlink:href="#XMLID_271_" patternTransform="matrix(1 0 0 1 -179.0095 16690.6328)">
		</pattern>
		<path id="XMLID_488_" class="st10" d="M62.1,372.6H18.7c-45.4,0-82.1,36.8-82.1,82.1v27.1c30.2,19.7,66.2,31.1,105,31.1
			c37.8,0,73-10.9,102.7-29.6v-28.5C144.2,409.4,107.4,372.6,62.1,372.6z"/>
	</g>
	<path id="XMLID_490_" class="st11" d="M41.3,401.6L41.3,401.6c-13.1,0-23.8-10.6-23.8-23.8v-41.7c0-13.1,10.6-23.8,23.8-23.8l0,0
		c13.1,0,23.8,10.6,23.8,23.8v41.7C65.1,391,54.5,401.6,41.3,401.6z"/>
	<path id="XMLID_491_" class="st12" d="M41.3,347.8L41.3,347.8c-65.2,0-118.2-52.9-118.2-118.2v-81.1c0-54.3,44-98.3,98.3-98.3h39.7
		c54.3,0,98.3,44,98.3,98.3v81.1C159.6,294.9,106.6,347.8,41.3,347.8z"/>
	<path id="XMLID_492_" class="st11" d="M27.1,269.1H56c1.7,0,2.3,1.7,0.9,2.4c-3.3,1.6-8.7,3.4-16.1,3.4c-7.5,0-12.1-1.9-14.7-3.5
		C24.8,270.8,25.5,269.1,27.1,269.1z"/>
	<g id="XMLID_585_">
		<pattern  id="XMLID_276_" xlink:href="#XMLID_272_" patternTransform="matrix(1 0 0 1 -179.0095 16690.6328)">
		</pattern>
		<path id="XMLID_583_" class="st13" d="M39.7,402.5l-4.6,3.8c-1.5,1.2-3.7,1-5-0.5l-22-26.6c-1.2-1.5-1-3.7,0.5-5l4.6-3.8
			c1.5-1.2,3.7-1,5,0.5l22,26.6C41.5,399,41.2,401.1,39.7,402.5z"/>
		<path id="XMLID_584_" class="st14" d="M39.7,402.5l-4.6,3.8c-1.5,1.2-3.7,1-5-0.5l-22-26.6c-1.2-1.5-1-3.7,0.5-5l4.6-3.8
			c1.5-1.2,3.7-1,5,0.5l22,26.6C41.5,399,41.2,401.1,39.7,402.5z"/>
	</g>
	<g id="XMLID_678_">
		<pattern  id="XMLID_277_" xlink:href="#XMLID_273_" patternTransform="matrix(1 0 0 1 -179.0095 16690.6328)">
		</pattern>
		<path id="XMLID_676_" class="st15" d="M42.1,402.5l4.6,3.8c1.5,1.2,3.7,1,5-0.5l22-26.6c1.2-1.5,1-3.7-0.5-5l-4.6-3.8
			c-1.5-1.2-3.7-1-5,0.5l-22,26.6C40.4,399,40.6,401.1,42.1,402.5z"/>
		<path id="XMLID_677_" class="st14" d="M42.1,402.5l4.6,3.8c1.5,1.2,3.7,1,5-0.5l22-26.6c1.2-1.5,1-3.7-0.5-5l-4.6-3.8
			c-1.5-1.2-3.7-1-5,0.5l-22,26.6C40.4,399,40.6,401.1,42.1,402.5z"/>
	</g>
	<path id="XMLID_679_" class="st16" d="M1.1,178.4c0,0-4.3-0.3-14.8,2.1c-10.5,2.4-15.3,4.6-15.3,4.6c-1.7,0.9-2.9-1.5-1.6-2.6
		c3.1-2.6,8.2-6,15.9-7.7c7.8-1.7,13.2-0.7,16.3,0.6C3.1,176,2.6,178.5,1.1,178.4z"/>
	<path id="XMLID_680_" class="st16" d="M75.4,179.8c0,0,4.3-0.3,14.8,2.1c10.5,2.4,15.3,4.6,15.3,4.6c1.7,0.9,2.9-1.5,1.6-2.6
		c-3.1-2.6-8.2-6-15.9-7.7c-7.8-1.7-13.2-0.7-16.3,0.6C73.5,177.4,74,179.9,75.4,179.8z"/>
	<circle id="XMLID_681_" cx="82.1" cy="205.5" r="5.7"/>
	<circle id="XMLID_682_" cx="-8.7" cy="205.5" r="5.7"/>
	<circle id="XMLID_683_" class="st17" cx="-10.9" cy="203.8" r="1.7"/>
	<circle id="XMLID_684_" class="st17" cx="79.8" cy="203.8" r="1.7"/>
	<g id="XMLID_689_">
		<g id="XMLID_687_">
			<path id="XMLID_685_" class="st18" d="M71,286.2v1.4c0,2.6-2.8,4.7-6.2,4.7H17.3c-3.4,0-6.2-2.1-6.2-4.7v-1.1
				c-1.6,0.7-2.6,2.1-2.3,3.7c1,4.4,3.4,8.4,6.9,11.7c1-2,2.5-3.2,4.2-3.2h42.4c1.8,0,3.4,1.5,4.4,3.8c3.8-3.4,6.4-7.6,7.4-12.2
				C74.5,288.5,73.1,286.9,71,286.2z"/>
			<path id="XMLID_686_" class="st19" d="M62.3,298.6H19.9c-1.7,0-3.1,1.3-4.2,3.2c2.2,2.1,4.8,3.9,7.7,5.3l0,0
				c5.2,2.6,11.4,4.1,18,4.1c6.6,0,12.8-1.5,18-4.1c2.7-1.3,5.1-3,7.2-4.8C65.7,300.1,64.1,298.6,62.3,298.6z"/>
		</g>
		<path id="XMLID_688_" class="st19" d="M17.4,298.6h47.5c3.4,0,6.2-4.3,6.2-9.5v-2.8c-0.5-0.3-1-0.4-1.5-0.4h-56
			c-0.9,0-1.7,0.4-2.4,1v2.2C11.2,294.4,13.9,298.6,17.4,298.6z"/>
	</g>
	<g id="XMLID_691_">
		<linearGradient id="XMLID_278_" gradientUnits="userSpaceOnUse" x1="127.0415" y1="210.0638" x2="135.9093" y2="143.5557">
			<stop  offset="0" style="stop-color:#858585"/>
			<stop  offset="0.2917" style="stop-color:#505050"/>
			<stop  offset="0.6392" style="stop-color:#161616"/>
			<stop  offset="0.8065" style="stop-color:#000000"/>
		</linearGradient>
		<path id="XMLID_690_" class="st20" d="M160.2,118.1c0-24.2-21.7-43.9-48.5-43.9l0,0V88c0,13.5,5,26.5,13.7,37.5
			c5.7,7.2,19.2,12.5,19,25.5v37.8c0,12.8,1.3,23.4,15.5,23.5c0.1,0,0.2,0,0.3,0V118.1z"/>
	</g>
	<path id="XMLID_692_" class="st12" d="M157.4,246L157.4,246c-4.1,0-7.5-3.3-7.5-7.5v-36.3c0-6.9,5.6-12.5,12.5-12.5l0,0
		c6.9,0,12.5,5.6,12.5,12.5l-4.9,30.4c-0.1,0.6-0.1,1.1-0.2,1.7C169.4,240.9,164,246,157.4,246z"/>
	<g id="XMLID_694_">
		<linearGradient id="XMLID_279_" gradientUnits="userSpaceOnUse" x1="-57.2598" y1="208.3335" x2="-55.0429" y2="147.1459">
			<stop  offset="0" style="stop-color:#858585"/>
			<stop  offset="0.3292" style="stop-color:#505050"/>
			<stop  offset="0.7212" style="stop-color:#161616"/>
			<stop  offset="0.91" style="stop-color:#000000"/>
		</linearGradient>
		<path id="XMLID_693_" class="st21" d="M-77.7,118.1c0-24.2,21.7-43.9,48.5-43.9l0,0V88c0,13.5-5,26.5-13.7,37.5
			c-5.7,7.2-19.2,12.5-19,25.5v37.8c0,12.8-1.3,23.4-15.5,23.5c-0.1,0-0.2,0-0.3,0V118.1z"/>
	</g>
	<path id="XMLID_695_" class="st16" d="M123.1,87.3l-103.9,23c-39.1,8.7-78.9-3.9-87-40.9c-1-4.5-1.5-9.1-1.5-13.8v-2
		c0-3,2.6-5.5,5.8-5.5H59.4c40,0,72.4,1.9,72.4,30.6v2c0,2.9-2.2,5.3-5,5.8L123.1,87.3z"/>
	<path id="XMLID_696_" class="st12" d="M-74.9,246L-74.9,246c4.1,0,7.5-3.3,7.5-7.5v-36.3c0-6.9-5.6-12.5-12.5-12.5l0,0
		c-6.9,0-12.5,5.6-12.5,12.5l4.9,30.4c0.1,0.6,0.1,1.1,0.2,1.7C-86.9,240.9-81.5,246-74.9,246z"/>
	<path id="XMLID_697_" class="st22" d="M-40.9,110.6c-2,5.6-5.6,12.5-11.7,17.4c-11.9,9.5-14,11.1-14,11.1"/>
	<path id="XMLID_698_" class="st22" d="M-59.6,88.8c0,0-12.7,10.2-13.4,21.5"/>
	<path id="XMLID_699_" class="st22" d="M-63.3,130.2c0,0,9.2-5.5,11.9-10.9"/>
	<path id="XMLID_700_" class="st22" d="M-59.3,123.2c-1.6,2-3.8,3.3-6.8,4.9c-2.1,1.2-4.1,2.7-5.5,4.7c-1.2,1.7-2.2,3.8-2.3,6.3"/>
	<path id="XMLID_701_" class="st22" d="M133.7,87c0,0,22.4,11.9,23.1,34.4"/>
	<path id="XMLID_702_" class="st22" d="M122.2,95.8c0,0-0.7,15.9,8.4,23.7c9.1,7.8,12.6,13.5,14.6,18"/>
	<path id="XMLID_703_" class="st22" d="M153.2,145.7c0,0,1.9-19.8-1.1-29.1"/>
	<path id="XMLID_704_" class="st22" d="M130.4,102.6c0,0-0.2,9,7.1,14.6"/>
	<path id="XMLID_705_" class="st22" d="M138.1,108.8c0,0,1.8,4.6,7.1,8.4c6.8,4.9,4.7,17.3,4.7,17.3"/>
	<g id="XMLID_725_">
		<path id="XMLID_706_" class="st22" d="M-63.4,58.7c0,0-0.9,14,6,22"/>
		<path id="XMLID_707_" class="st22" d="M-53.2,74.9c1.4,3.5,3.4,7,6.4,9.6"/>
		<path id="XMLID_708_" class="st22" d="M-51.6,67.9c0.5,2.1,1.3,4.1,2.5,5.9"/>
		<path id="XMLID_709_" class="st22" d="M72.2,51.4c0,0,37.7-2.5,51.2,11.6"/>
		<path id="XMLID_710_" class="st22" d="M114.9,61.9c2.7,1.4,5.2,3.1,7.1,5.1"/>
		<path id="XMLID_711_" class="st22" d="M103.3,62.3c3,0.8,5.7,1.9,8,3.5"/>
		<path id="XMLID_712_" class="st22" d="M-40.2,95.5c0,0,23.8,18.5,62,10.5"/>
		<path id="XMLID_713_" class="st22" d="M-20.6,97.5c7.5,2.5,17.4,4.6,29.2,4.2"/>
		<path id="XMLID_714_" class="st22" d="M-26,90.4c7.4,3,17.1,5.6,28.9,5.9"/>
		<path id="XMLID_715_" class="st22" d="M22.3,90.8c0,0,25.3-2,37.4-8"/>
		<path id="XMLID_716_" class="st22" d="M38,82.9c7.7-1.3,16.6-3.2,22.4-6.2"/>
		<path id="XMLID_717_" class="st22" d="M24,80.2c7.7-0.8,16.8-2.3,22.8-4.9"/>
		<path id="XMLID_718_" class="st22" d="M128.4,74.9c0,0,1.1,8.2-7.8,10.6c0,0-24.1,6.3-31.4,7.1"/>
		<path id="XMLID_719_" class="st22" d="M122.5,73.5c0,0,1,7.4-7,9.5"/>
		<path id="XMLID_720_" class="st22" d="M-60.4,59.8c0,0-0.6-8.4,5.2-8.5c5.9-0.1,47.1,0,47.1,0"/>
		<line id="XMLID_721_" class="st22" x1="-21.4" y1="54.7" x2="5.2" y2="54.7"/>
		<line id="XMLID_722_" class="st22" x1="-8.7" y1="57.2" x2="7.9" y2="57.2"/>
		<path id="XMLID_723_" class="st22" d="M-40.2,61.9c0,0,6,17,27.5,20.7"/>
		<path id="XMLID_724_" class="st22" d="M-18.4,67.9c0,0,6.8,7,19.1,6.9"/>
	</g>
</g>
</svg>
